<svg width="157" height="64" viewBox="0 0 157 64" fill="none" xmlns="http://www.w3.org/2000/svg">
<path d="M25.6699 13.6621C20.4267 13.6621 15.9009 13.4545 10.955 15.2208C5.39462 17.2067 4.32775 21.746 3.65991 27.0052C2.86518 33.2637 1.53497 41.5229 8.3986 44.4012C12.6877 46.1999 17.6467 47.3317 22.3029 47.3317" stroke="#1E1E1E" stroke-width="5.3881" stroke-linecap="round" stroke-linejoin="round"/>
<path d="M43.627 9.17285C41.7175 9.41154 43.627 43.8985 43.627 47.3318" stroke="#1E1E1E" stroke-width="5.3881" stroke-linecap="round" stroke-linejoin="round"/>
<path d="M43.0664 27.6912C45.7214 27.6912 48.4257 28.2523 50.9227 28.2523" stroke="#1E1E1E" stroke-width="5.3881" stroke-linecap="round" stroke-linejoin="round"/>
<path d="M62.707 5.24464C63.0606 9.13413 64.3905 12.4883 64.3905 16.4679C64.3905 20.851 68.935 20.396 72.5274 20.396C77.5882 20.396 82.649 20.396 87.7099 20.396C91.7018 20.396 91.3263 19.0234 91.3263 15.3455C91.3263 12.9138 91.3263 10.4821 91.3263 8.05044C91.3263 4.49465 91.0566 4.12231 87.3981 4.12231C80.4771 4.12231 73.5562 4.12231 66.6352 4.12231" stroke="#1E1E1E" stroke-width="5.3881" stroke-linecap="round" stroke-linejoin="round"/>
<path d="M59.9014 31.6192C62.2107 29.7717 68.3751 31.0581 71.1246 31.0581C74.5643 31.0581 78.004 31.0581 81.4437 31.0581C86.4214 31.0581 91.3992 31.0581 96.3769 31.0581" stroke="#1E1E1E" stroke-width="5.3881" stroke-linecap="round" stroke-linejoin="round"/>
<path d="M64.9513 38.9143C69.1503 38.9143 73.3838 38.7409 77.5774 38.9455C80.8463 39.1049 84.03 40.0727 87.273 40.4731C88.9672 40.6822 91.1796 40.6365 92.7288 41.4707C94.4062 42.3739 94.6928 43.886 94.6928 45.6482C94.6928 50.3033 81.9371 49.0152 79.105 49.0152C74.5208 49.0152 69.0599 48.328 64.6395 49.9193C60.953 51.2464 58.7863 56.1889 63.6107 58.212C72.811 62.0702 83.2865 60.7996 93.0094 60.7996" stroke="#1E1E1E" stroke-width="5.3881" stroke-linecap="round" stroke-linejoin="round"/>
<path d="M104.794 4.68348C105.964 3.51255 109.724 3.85619 111.278 3.68586C113.492 3.44323 115.857 3 118.074 3C121.223 3 124.372 3 127.521 3C131.035 3 130.046 9.25462 130.046 11.4174C130.046 16.3722 117.017 14.7844 113.492 14.7844C110.613 14.7844 107.767 14.2735 105.916 16.9043C104.533 18.8701 104.07 23.2142 104.918 25.5712C105.443 27.0279 107.466 27.0889 108.753 27.4105C111.932 28.2054 115.696 28.9147 118.947 29.2499C122.232 29.5885 125.617 29.3746 128.923 29.3746" stroke="#1E1E1E" stroke-width="5.3881" stroke-linecap="round" stroke-linejoin="round"/>
<path d="M141.27 3.56128C141.27 12.238 141.831 20.7543 141.831 29.3747" stroke="#1E1E1E" stroke-width="5.3881" stroke-linecap="round" stroke-linejoin="round"/>
<path d="M141.83 16.4678H154.176" stroke="#1E1E1E" stroke-width="5.3881" stroke-linecap="round" stroke-linejoin="round"/>
<path d="M152.492 3.56128C152.492 6.00903 153.457 8.43755 153.646 10.8876C153.852 13.5702 154.176 16.1069 154.176 18.8373C154.176 22.911 154.176 26.9846 154.176 31.0582" stroke="#1E1E1E" stroke-width="5.3881" stroke-linecap="round" stroke-linejoin="round"/>
<path d="M117.14 42.2813C117.14 45.5548 117.14 48.8282 117.14 52.1017C117.14 56.4614 129.935 54.6269 132.166 54.6269C137.518 54.6269 142.87 54.6269 148.222 54.6269C151.509 54.6269 150.248 49.0515 150.248 46.6459C150.248 44.8337 150.88 39.4555 148.876 38.8832C146.018 38.0666 142.629 38.3532 139.461 38.3532C132.021 38.3532 124.58 38.3532 117.14 38.3532" stroke="#1E1E1E" stroke-width="5.3881" stroke-linecap="round" stroke-linejoin="round"/>
<path d="M12.2021 22.6406H12.2022" stroke="#F24822" stroke-width="2.69405" stroke-linecap="round" stroke-linejoin="round"/>
<path d="M19.4971 22.0796H19.4972" stroke="#F24822" stroke-width="2.69405" stroke-linecap="round" stroke-linejoin="round"/>
<path d="M12.2021 31.6193C12.2021 35.746 13.0785 36.6697 17.2526 36.6697C20.5311 36.6697 21.7419 33.8578 21.7419 31.0581" stroke="#F24822" stroke-width="2.69405" stroke-linecap="round" stroke-linejoin="round"/>
<path d="M128.362 45.0872H128.362" stroke="#0D99FF" stroke-width="2.69405" stroke-linecap="round" stroke-linejoin="round"/>
<path d="M139.586 45.0872H139.586" stroke="#0D99FF" stroke-width="2.69405" stroke-linecap="round" stroke-linejoin="round"/>
<path d="M133.021 49.1443H135.883" stroke="#0D99FF" stroke-width="2.69405" stroke-linecap="round" stroke-linejoin="round"/>
<path d="M25.6699 13.6621C20.4267 13.6621 15.9009 13.4545 10.955 15.2208C5.39462 17.2067 4.32775 21.746 3.65991 27.0052C2.86518 33.2637 1.53497 41.5229 8.3986 44.4012C12.6877 46.1999 17.6467 47.3317 22.3029 47.3317" stroke="#1E1E1E" stroke-width="5.3881" stroke-linecap="round" stroke-linejoin="round"/>
<path d="M43.627 9.17285C41.7175 9.41154 43.627 43.8985 43.627 47.3318" stroke="#1E1E1E" stroke-width="5.3881" stroke-linecap="round" stroke-linejoin="round"/>
<path d="M43.0664 27.6912C45.7214 27.6912 48.4257 28.2523 50.9227 28.2523" stroke="#1E1E1E" stroke-width="5.3881" stroke-linecap="round" stroke-linejoin="round"/>
<path d="M62.707 5.24464C63.0606 9.13413 64.3905 12.4883 64.3905 16.4679C64.3905 20.851 68.935 20.396 72.5274 20.396C77.5882 20.396 82.649 20.396 87.7099 20.396C91.7018 20.396 91.3263 19.0234 91.3263 15.3455C91.3263 12.9138 91.3263 10.4821 91.3263 8.05044C91.3263 4.49465 91.0566 4.12231 87.3981 4.12231C80.4771 4.12231 73.5562 4.12231 66.6352 4.12231" stroke="#1E1E1E" stroke-width="5.3881" stroke-linecap="round" stroke-linejoin="round"/>
<path d="M59.9014 31.6192C62.2107 29.7717 68.3751 31.0581 71.1246 31.0581C74.5643 31.0581 78.004 31.0581 81.4437 31.0581C86.4214 31.0581 91.3992 31.0581 96.3769 31.0581" stroke="#1E1E1E" stroke-width="5.3881" stroke-linecap="round" stroke-linejoin="round"/>
<path d="M64.9513 38.9143C69.1503 38.9143 73.3838 38.7409 77.5774 38.9455C80.8463 39.1049 84.03 40.0727 87.273 40.4731C88.9672 40.6822 91.1796 40.6365 92.7288 41.4707C94.4062 42.3739 94.6928 43.886 94.6928 45.6482C94.6928 50.3033 81.9371 49.0152 79.105 49.0152C74.5208 49.0152 69.0599 48.328 64.6395 49.9193C60.953 51.2464 58.7863 56.1889 63.6107 58.212C72.811 62.0702 83.2865 60.7996 93.0094 60.7996" stroke="#1E1E1E" stroke-width="5.3881" stroke-linecap="round" stroke-linejoin="round"/>
<path d="M104.794 4.68348C105.964 3.51255 109.724 3.85619 111.278 3.68586C113.492 3.44323 115.857 3 118.074 3C121.223 3 124.372 3 127.521 3C131.035 3 130.046 9.25462 130.046 11.4174C130.046 16.3722 117.017 14.7844 113.492 14.7844C110.613 14.7844 107.767 14.2735 105.916 16.9043C104.533 18.8701 104.07 23.2142 104.918 25.5712C105.443 27.0279 107.466 27.0889 108.753 27.4105C111.932 28.2054 115.696 28.9147 118.947 29.2499C122.232 29.5885 125.617 29.3746 128.923 29.3746" stroke="#1E1E1E" stroke-width="5.3881" stroke-linecap="round" stroke-linejoin="round"/>
<path d="M141.27 3.56128C141.27 12.238 141.831 20.7543 141.831 29.3747" stroke="#1E1E1E" stroke-width="5.3881" stroke-linecap="round" stroke-linejoin="round"/>
<path d="M141.83 16.4678H154.176" stroke="#1E1E1E" stroke-width="5.3881" stroke-linecap="round" stroke-linejoin="round"/>
<path d="M152.492 3.56128C152.492 6.00903 153.457 8.43755 153.646 10.8876C153.852 13.5702 154.176 16.1069 154.176 18.8373C154.176 22.911 154.176 26.9846 154.176 31.0582" stroke="#1E1E1E" stroke-width="5.3881" stroke-linecap="round" stroke-linejoin="round"/>
<path d="M117.14 42.2813C117.14 45.5548 117.14 48.8282 117.14 52.1017C117.14 56.4614 129.935 54.6269 132.166 54.6269C137.518 54.6269 142.87 54.6269 148.222 54.6269C151.509 54.6269 150.248 49.0515 150.248 46.6459C150.248 44.8337 150.88 39.4555 148.876 38.8832C146.018 38.0666 142.629 38.3532 139.461 38.3532C132.021 38.3532 124.58 38.3532 117.14 38.3532" stroke="#1E1E1E" stroke-width="5.3881" stroke-linecap="round" stroke-linejoin="round"/>
<path d="M12.2021 22.6406H12.2022" stroke="#F24822" stroke-width="2.69405" stroke-linecap="round" stroke-linejoin="round"/>
<path d="M19.4971 22.0796H19.4972" stroke="#F24822" stroke-width="2.69405" stroke-linecap="round" stroke-linejoin="round"/>
<path d="M12.2021 31.6193C12.2021 35.746 13.0785 36.6697 17.2526 36.6697C20.5311 36.6697 21.7419 33.8578 21.7419 31.0581" stroke="#F24822" stroke-width="2.69405" stroke-linecap="round" stroke-linejoin="round"/>
<path d="M128.362 45.0872H128.362" stroke="#0D99FF" stroke-width="2.69405" stroke-linecap="round" stroke-linejoin="round"/>
<path d="M139.586 45.0872H139.586" stroke="#0D99FF" stroke-width="2.69405" stroke-linecap="round" stroke-linejoin="round"/>
<path d="M133.021 49.1443H135.883" stroke="#0D99FF" stroke-width="2.69405" stroke-linecap="round" stroke-linejoin="round"/>
</svg>
